PathFileType	4	(X/Y/Z)	/Users/itak/Documents/Research/Walk-IL/dataset/trc/00539_00009.trc
DataRate	CameraRate	NumFrames	NumMarkers	Units	OrigDataRate	OrigDataStartFrame	OrigNumFrames
100.000000	100.000000	4	53	mm	100.000000	665	761
Frame#	Time	RPSI			LPSI			L3			STRN			T10			C7			CLAV			RBAK			LBAK			LSHO			LUPA			LAEL			LAOL			LWTS			LWPS			LFRA			LIFD			LHPS			LHTS			RSHO			RUPA			RAEL			RAOL			RWTS			RWPS			RFRA			RIFD			RHTS			RHPS			RBHD			LFHD			RFHD			LBHD			LHIP			RHIP			RASI			LASI			LKNE			LTHI			LANK			LTIP			LTOE			LMT1			LMT5			LHEE			RKNE			RTHI			RANK			RTIP			RTOE			RMT1			RMT5			RHEE			
		X1	Y1	Z1	X2	Y2	Z2	X3	Y3	Z3	X4	Y4	Z4	X5	Y5	Z5	X6	Y6	Z6	X7	Y7	Z7	X8	Y8	Z8	X9	Y9	Z9	X10	Y10	Z10	X11	Y11	Z11	X12	Y12	Z12	X13	Y13	Z13	X14	Y14	Z14	X15	Y15	Z15	X16	Y16	Z16	X17	Y17	Z17	X18	Y18	Z18	X19	Y19	Z19	X20	Y20	Z20	X21	Y21	Z21	X22	Y22	Z22	X23	Y23	Z23	X24	Y24	Z24	X25	Y25	Z25	X26	Y26	Z26	X27	Y27	Z27	X28	Y28	Z28	X29	Y29	Z29	X30	Y30	Z30	X31	Y31	Z31	X32	Y32	Z32	X33	Y33	Z33	X34	Y34	Z34	X35	Y35	Z35	X36	Y36	Z36	X37	Y37	Z37	X38	Y38	Z38	X39	Y39	Z39	X40	Y40	Z40	X41	Y41	Z41	X42	Y42	Z42	X43	Y43	Z43	X44	Y44	Z44	X45	Y45	Z45	X46	Y46	Z46	X47	Y47	Z47	X48	Y48	Z48	X49	Y49	Z49	X50	Y50	Z50	X51	Y51	Z51	X52	Y52	Z52	X53	Y53	Z53	

666	6.65	1000.778747558594	1022.770629882812	500.5319519042969	1014.553527832031	1024.067749023438	367.1173706054688	1012.210754394531	1117.146240234375	429.6091003417969	1245.005615234375	1298.510986328125	436.713134765625	1002.129516601562	1242.02978515625	427.9140930175781	1054.98193359375	1514.068725585938	445.0682678222656	1227.249633789062	1409.8173828125	436.8160705566406	979.5636596679688	1390.974731445312	529.7694091796875	1023.377014160156	1462.635864257812	350.9227600097656	1125.373901367188	1484.349975585938	272.7007751464844	1115.2353515625	1358.685668945312	191.8013610839844	1127.715942382812	1135.972412109375	166.7662811279297	1040.535888671875	1131.343872070312	216.2840270996094	1203.776977539062	885.0363159179688	203.0628509521484	1156.248901367188	868.6256103515625	131.4928894042969	1145.76123046875	1048.775390625	156.2960815429688	1186.63330078125	715.0916748046875	191.3613739013672	1159.86572265625	807.8880004882812	137.1451721191406	1212.596801757812	807.35986328125	180.1812133789062	1112.366577148438	1472.18115234375	601.1494140625	1091.038940429688	1407.659545898438	667.6813354492188	1072.591430664062	1118.193359375	710.856201171875	1018.656127929688	1103.416259765625	679.9555053710938	1199.841186523438	893.2662963867188	685.2637329101562	1149.172119140625	875.6226196289062	747.39111328125	1079.355102539062	1062.752319335938	719.7532958984375	1205.10400390625	719.9175415039062	691.097412109375	1223.9853515625	801.1389770507812	703.2640991210938	1164.7587890625	801.173583984375	748.4049072265625	1140.880981445312	1693.29931640625	512.4847412109375	1299.433959960938	1707.87255859375	378.6411743164062	1281.273315429688	1707.593017578125	523.094970703125	1169.450439453125	1691.753295898438	349.8832702636719	1150.063232421875	939.31201171875	245.4689331054688	1117.370971679688	951.5772705078125	631.523681640625	1206.302856445312	980.4323120117188	580.4886474609375	1223.245971679688	963.7744140625	305.4909362792969	1161.481201171875	495.1170654296875	331.2989196777344	1168.593627929688	658.5186767578125	288.737060546875	1080.651245117188	32.11412811279297	364.1208190917969	1097.30615234375	250.3562316894531	339.1217346191406	1286.973510742188	41.06658172607422	435.7692260742188	1212.223876953125	47.1251335144043	465.2935791015625	1202.979248046875	35.04984664916992	357.6095581054688	1009.19482421875	37.96319198608398	413.5897216796875	1174.792724609375	507.7122497558594	602.8373413085938	1161.088134765625	797.95263671875	637.8974609375	1075.575073242188	44.26640701293945	598.3565063476562	1173.117919921875	362.7332458496094	595.3614501953125	1297.775390625	42.36046600341797	569.6095581054688	1234.838134765625	43.42596054077148	525.25830078125	1206.375610351562	42.57262420654297	625.4224853515625	1023.622131347656	38.42990112304688	539.8717041015625	
667	6.66	1001.7724609375	1022.679504394531	501.3525695800781	1015.497131347656	1023.868713378906	368.0159301757812	1013.138977050781	1117.055419921875	430.447998046875	1245.50830078125	1298.60107421875	437.5511169433594	1002.882629394531	1241.936157226562	428.7467346191406	1055.343994140625	1513.9794921875	446.0438537597656	1227.6875	1409.83935546875	437.6773681640625	980.0548095703125	1390.863525390625	530.751708984375	1023.76708984375	1462.579467773438	351.8987121582031	1125.651245117188	1484.453857421875	273.65234375	1115.4130859375	1358.841674804688	192.6777191162109	1127.667724609375	1136.158447265625	167.4116973876953	1040.557006835938	1131.562255859375	217.064453125	1203.808349609375	885.231201171875	203.4369964599609	1156.093872070312	868.8319702148438	132.0082397460938	1145.701293945312	1048.978881835938	156.8367614746094	1186.601806640625	715.2584228515625	191.8671264648438	1159.733764648438	808.0783081054688	137.6365966796875	1212.561279296875	807.540283203125	180.5653991699219	1112.822631835938	1472.08984375	602.0439453125	1091.646362304688	1407.543579101562	668.5760498046875	1073.689819335938	1118.033203125	711.6502685546875	1019.69677734375	1103.090942382812	680.8651733398438	1201.578979492188	893.5432739257812	685.7073974609375	1151.055541992188	875.68115234375	747.8729858398438	1080.631713867188	1062.64208984375	720.5486450195312	1207.476318359375	720.1946411132812	691.36669921875	1226.060302734375	801.480712890625	703.6143188476562	1166.908569335938	801.286865234375	748.7750244140625	1140.99951171875	1693.236694335938	513.4906616210938	1299.462890625	1708.124389648438	379.5836181640625	1281.388427734375	1707.733520507812	524.024169921875	1169.5029296875	1691.785888671875	350.89794921875	1151.344116210938	939.2737426757812	246.4993591308594	1118.257080078125	951.5354614257812	632.4535522460938	1207.150024414062	980.464599609375	581.5133666992188	1224.33740234375	963.8885498046875	306.4989013671875	1162.581787109375	495.1335754394531	332.2255249023438	1169.752197265625	658.5122680664062	289.693359375	1080.668579101562	32.23714447021484	364.2015686035156	1097.931396484375	250.4320373535156	339.5824584960938	1286.985229492188	41.00474166870117	435.8609313964844	1212.246704101562	46.9864387512207	465.4572448730469	1202.9755859375	35.08537673950195	357.7565002441406	1009.181579589844	38.0025634765625	413.7052612304688	1173.628540039062	507.4591979980469	603.5219116210938	1160.980834960938	797.9288330078125	638.928955078125	1075.441528320312	44.021728515625	598.4351196289062	1172.168579101562	362.5530395507812	595.7260131835938	1297.7802734375	42.35453796386719	569.5926513671875	1234.839599609375	43.41584396362305	525.2418212890625	1206.341064453125	42.52986145019531	625.4749755859375	1023.554321289062	38.08217239379883	539.8876953125	
668	6.67	1002.753112792969	1022.572692871094	502.18408203125	1016.379272460938	1023.667175292969	368.9327392578125	1014.026123046875	1116.941040039062	431.3175354003906	1246.010009765625	1298.661743164062	438.3890991210938	1003.630615234375	1241.810913085938	429.5885925292969	1055.693725585938	1513.87109375	447.0148315429688	1228.121215820312	1409.842651367188	438.564453125	980.536376953125	1390.72216796875	531.722900390625	1024.16015625	1462.525390625	352.8495788574219	1125.937866210938	1484.526611328125	274.59765625	1115.628173828125	1358.965087890625	193.5703277587891	1127.734375	1136.3056640625	168.0936279296875	1040.676879882812	1131.73388671875	217.82470703125	1203.985961914062	885.4034423828125	203.9196472167969	1156.152465820312	869.0164794921875	132.5685424804688	1145.791381835938	1049.169555664062	157.4119415283203	1186.7734375	715.4099731445312	192.4598693847656	1159.816528320312	808.2360229492188	138.2047424316406	1212.719360351562	807.7071533203125	181.0386505126953	1113.260986328125	1471.9970703125	602.9539184570312	1092.213623046875	1407.411254882812	669.4814453125	1074.781982421875	1117.867553710938	712.4747314453125	1020.73974609375	1102.74755859375	681.7759399414062	1203.361572265625	893.8523559570312	686.1511840820312	1152.993774414062	875.7511596679688	748.3614501953125	1081.917846679688	1062.515502929688	721.3544311523438	1209.9345703125	720.50048828125	691.6265869140625	1228.203125	801.8505249023438	703.9501953125	1169.127685546875	801.4199829101562	749.1513061523438	1141.106323242188	1693.142333984375	514.5000610351562	1299.488403320312	1708.3623046875	380.5213623046875	1281.4970703125	1707.851318359375	524.9683837890625	1169.55810546875	1691.7919921875	351.9155578613281	1152.56201171875	939.210205078125	247.5522613525391	1119.041137695312	951.4351196289062	633.4242553710938	1207.975219726562	980.4564208984375	582.548583984375	1225.403930664062	963.9867553710938	307.5300598144531	1163.666748046875	495.1297302246094	333.1822204589844	1170.8955078125	658.5040893554688	290.6473083496094	1080.685302734375	32.35867691040039	364.2928771972656	1098.558227539062	250.4887390136719	340.0578308105469	1287.00341796875	40.94271469116211	435.953125	1212.269653320312	46.85061264038086	465.6260986328125	1202.961669921875	35.12067794799805	357.9181823730469	1009.168640136719	38.0424690246582	413.8327941894531	1172.458251953125	507.1749267578125	604.2101440429688	1161.091430664062	797.8406372070312	639.8618774414062	1075.306884765625	43.76667022705078	598.5033569335938	1171.203979492188	362.35791015625	596.0792236328125	1297.77880859375	42.34243011474609	569.5756225585938	1234.831420898438	43.39577484130859	525.223876953125	1206.340576171875	42.49258041381836	625.5293579101562	1023.482238769531	37.72256851196289	539.9061279296875	
669	6.68	1003.712097167969	1022.444946289062	503.0295715332031	1017.215515136719	1023.462524414062	369.8595275878906	1014.876403808594	1116.797241210938	432.2191772460938	1246.5078125	1298.69873046875	439.2321166992188	1004.339965820312	1241.655639648438	430.4588623046875	1056.03173828125	1513.744018554688	447.9815368652344	1228.54931640625	1409.830444335938	439.4686279296875	981.002197265625	1390.546142578125	532.6851196289062	1024.546752929688	1462.472045898438	353.7777404785156	1126.233520507812	1484.5625	275.5325622558594	1115.880126953125	1359.050048828125	194.4739379882812	1127.909423828125	1136.409790039062	168.816650390625	1040.895141601562	1131.847045898438	218.5785675048828	1204.310668945312	885.5476684570312	204.5065002441406	1156.418579101562	869.1716918945312	133.1715393066406	1146.022338867188	1049.339599609375	158.0259094238281	1187.15966796875	715.5454711914062	193.1166076660156	1160.110961914062	808.3572998046875	138.8442230224609	1213.0703125	807.8595581054688	181.594482421875	1113.682495117188	1471.904296875	603.8834838867188	1092.7392578125	1407.262817382812	670.3991088867188	1075.86328125	1117.695678710938	713.3285522460938	1021.78369140625	1102.39306640625	682.6882934570312	1205.181518554688	894.188232421875	686.59228515625	1154.977294921875	875.82861328125	748.8554077148438	1083.208740234375	1062.367797851562	722.1627807617188	1212.46728515625	720.8369140625	691.8797607421875	1230.408203125	802.2510375976562	704.2700805664062	1171.40478515625	801.5709838867188	749.5399169921875	1141.20556640625	1693.02099609375	515.5121459960938	1299.515380859375	1708.58544921875	381.45361328125	1281.603271484375	1707.948974609375	525.927734375	1169.617553710938	1691.775390625	352.9301147460938	1153.692138671875	939.1312866210938	248.6155548095703	1119.675659179688	951.2840576171875	634.4526977539062	1208.778442382812	980.4089965820312	583.592529296875	1226.445678710938	964.0673217773438	308.5818176269531	1164.742431640625	495.1068420410156	334.1543579101562	1172.028442382812	658.4934692382812	291.58642578125	1080.703979492188	32.47598648071289	364.391357421875	1099.191284179688	250.5296020507812	340.5379943847656	1287.030883789062	40.88081359863281	436.044921875	1212.29150390625	46.72251129150391	465.7934875488281	1202.940795898438	35.15837478637695	358.0859680175781	1009.159484863281	38.08414077758789	413.9661865234375	1171.2998046875	506.8584289550781	604.8883666992188	1161.466796875	797.672607421875	640.6785888671875	1075.17724609375	43.51132965087891	598.540283203125	1170.237548828125	362.1471557617188	596.4125366210938	1297.7724609375	42.32481384277344	569.5573120117188	1234.816528320312	43.36336135864258	525.1990966796875	1206.366455078125	42.46323013305664	625.5729370117188	1023.412292480469	37.36307144165039	539.9089965820312	
